HIERARCHY
ROOT Hips
{
 OFFSET 0.000000 0.000000 0.000000
 CHANNELS 6 Xposition Yposition Zposition Yrotation Xrotation Zrotation
 JOINT Chest
 {
  OFFSET 0.000000 9.585900 0.002600
  CHANNELS 3 Yrotation Xrotation Zrotation
  JOINT Chest2
  {
   OFFSET 0.000000 9.601200 -0.005300
   CHANNELS 3 Yrotation Xrotation Zrotation
   JOINT Chest3
   {
    OFFSET 0.000000 9.561800 0.000000
    CHANNELS 3 Yrotation Xrotation Zrotation
    JOINT Chest4
    {
     OFFSET 0.000000 9.552100 0.000000
     CHANNELS 3 Yrotation Xrotation Zrotation
     JOINT Neck
     {
      OFFSET 0.000000 14.453000 0.000000
      CHANNELS 3 Yrotation Xrotation Zrotation
      JOINT Head
      {
       OFFSET 0.000000 8.936500 -0.011300
       CHANNELS 3 Yrotation Xrotation Zrotation
       End Site
       {
        OFFSET 0.000000 17.073600 -0.006000
       }
      }
     }
     JOINT RightCollar
     {
      OFFSET -2.921100 9.558500 0.000000
      CHANNELS 3 Yrotation Xrotation Zrotation
      JOINT RightShoulder
      {
       OFFSET -13.519700 0.000000 0.000000
       CHANNELS 3 Yrotation Xrotation Zrotation
       JOINT RightElbow
       {
        OFFSET 0.000000 -29.696600 0.000000
        CHANNELS 3 Yrotation Xrotation Zrotation
        JOINT RightWrist
        {
         OFFSET 0.000000 -24.004700 0.000000
         CHANNELS 3 Yrotation Xrotation Zrotation
         End Site
         {
          OFFSET 0.000000 -17.728500 0.000000
         }
        }
       }
      }
     }
     JOINT LeftCollar
     {
      OFFSET 2.921100 9.558500 0.000000
      CHANNELS 3 Yrotation Xrotation Zrotation
      JOINT LeftShoulder
      {
       OFFSET 13.519700 0.000000 0.000000
       CHANNELS 3 Yrotation Xrotation Zrotation
       JOINT LeftElbow
       {
        OFFSET 0.000000 -29.696600 0.000000
        CHANNELS 3 Yrotation Xrotation Zrotation
        JOINT LeftWrist
        {
         OFFSET 0.000000 -24.004700 0.000000
         CHANNELS 3 Yrotation Xrotation Zrotation
         End Site
         {
          OFFSET 0.000000 -17.728500 0.000000
         }
        }
       }
      }
     }
    }
   }
  }
 }
 JOINT RightHip
 {
  OFFSET -7.771700 -0.012900 -0.001300
  CHANNELS 3 Yrotation Xrotation Zrotation
  JOINT RightKnee
  {
   OFFSET 0.000000 -40.869800 0.001200
   CHANNELS 3 Yrotation Xrotation Zrotation
   JOINT RightAnkle
   {
    OFFSET 0.000000 -39.717900 0.002100
    CHANNELS 3 Yrotation Xrotation Zrotation
    JOINT RightToe
    {
     OFFSET 0.000000 -4.965400 11.033500
     CHANNELS 3 Yrotation Xrotation Zrotation
     End Site
     {
      OFFSET 0.000000 -1.423100 5.872300
     }
    }
   }
  }
 }
 JOINT LeftHip
 {
  OFFSET 7.771700 -0.012900 -0.001300
  CHANNELS 3 Yrotation Xrotation Zrotation
  JOINT LeftKnee
  {
   OFFSET 0.000000 -40.869800 0.001200
   CHANNELS 3 Yrotation Xrotation Zrotation
   JOINT LeftAnkle
   {
    OFFSET 0.000000 -39.717900 0.002100
    CHANNELS 3 Yrotation Xrotation Zrotation
    JOINT LeftToe
    {
     OFFSET 0.000000 -4.965400 11.033500
     CHANNELS 3 Yrotation Xrotation Zrotation
     End Site
     {
      OFFSET 0.000000 -1.423100 5.872300
     }
    }
   }
  }
 }
}
MOTION
Frames: 15
Frame Time: 0.008333
0.000000 85.388000 0.000000 0.000000 -5.767877 0.000000 0.000000 11.653817 0.000000 0.000000 -5.885947 0.000000 0.000000 -0.000000 0.000000 0.000000 -0.000000 0.000000 0.000000 12.528835 0.000000 0.000000 0.711642 0.000000 0.000000 -0.000000 0.000000 0.000000 0.000000 -90.000000 0.000000 -2.309062 0.000000 0.000000 2.309062 0.000000 0.000000 -0.000000 0.000000 0.000000 -0.000000 90.000000 0.000000 -2.309062 0.000000 0.000000 2.309062 0.000000 0.000000 8.520406 0.000000 0.000000 1.905762 0.000000 -0.000000 -4.658285 0.000000 0.000000 -0.000000 0.000000 0.000000 8.520406 0.000000 0.000000 1.905762 0.000000 -0.000000 -4.658285 0.000000 0.000000 -0.000000 0.000000
-249.349532 60.483922 -79.265271 155.006491 -15.732703 2.891204 4.184214 10.640577 0.515964 0.288795 0.733632 0.032061 0.491856 1.271130 0.047401 3.921407 9.737207 0.745899 3.394195 19.130997 -0.134975 3.653239 -5.469518 -0.914001 3.433827 6.246429 -1.798888 -6.333533 -12.351428 -5.885474 -81.981931 -80.275004 98.842411 0.082063 5.283250 -35.087618 -5.179870 2.278225 -5.317554 22.714306 -4.285195 1.862003 69.536729 -78.575955 -86.195457 -5.383380 5.651197 8.798339 1.421760 -53.604928 6.788457 -25.839690 71.011710 -22.870384 -0.523268 -5.607188 -3.203312 0.072684 -0.282703 0.037048 17.279850 -52.837420 -1.682023 28.725813 66.790119 28.509175 -15.626625 -16.152256 0.683332 0.069871 0.231072 0.017945
-249.350034 60.484273 -79.265779 155.025340 -15.727082 2.884240 4.163526 10.646889 0.507095 0.288486 0.733688 0.031859 0.493011 1.269199 0.047774 3.910400 9.750180 0.734626 3.404111 19.121579 -0.124572 3.661455 -5.481108 -0.911990 3.448912 6.237346 -1.787870 -6.330550 -12.360576 -5.883841 -81.989316 -80.276538 98.850503 0.091357 5.313257 -35.076154 -5.180884 2.279006 -5.317622 22.694087 -4.300650 1.880622 69.596784 -78.573007 -86.230074 -5.384782 5.648769 8.794510 1.394534 -53.602415 6.805901 -25.813430 70.998319 -22.862869 -0.541306 -5.574385 -3.195315 0.082083 -0.309641 0.039297 17.254848 -52.845820 -1.683897 28.757253 66.784751 28.540278 -15.589816 -16.185345 0.679897 0.124500 0.278899 0.029891
-249.348000 60.484767 -79.266087 155.020561 -15.724244 2.868628 4.169105 10.652739 0.514573 0.288323 0.733869 0.031655 0.494773 1.269957 0.048384 3.911196 9.741843 0.739501 3.392650 19.138199 -0.129983 3.663657 -5.481478 -0.906922 3.449831 6.259068 -1.796641 -6.321363 -12.368328 -5.882926 -81.993201 -80.278116 98.850397 0.085201 5.303365 -35.077757 -5.182551 2.282215 -5.320292 22.682231 -4.302872 1.886938 69.593256 -78.569716 -86.221238 -5.386722 5.642669 8.799961 1.371795 -53.602040 6.839288 -25.806942 70.994311 -22.861497 -0.531528 -5.570292 -3.193780 0.072620 -0.311708 0.037118 17.224991 -52.852792 -1.655606 28.779692 66.781376 28.564538 -15.547340 -16.194788 0.672697 0.146463 0.289920 0.033666
-249.347677 60.485339 -79.267283 155.021039 -15.721248 2.862978 4.171381 10.660332 0.511945 0.287771 0.743624 0.024064 0.494046 1.259949 0.056414 3.905338 9.743408 0.737740 3.391368 19.140573 -0.129205 3.659491 -5.478506 -0.906360 3.456347 6.253501 -1.792913 -6.288909 -12.349477 -5.906655 -82.003985 -80.275210 98.851562 0.075467 5.282167 -35.091273 -5.178997 2.276898 -5.317591 22.673368 -4.306466 1.891375 69.607878 -78.568156 -86.228970 -5.390711 5.646348 8.792529 1.361742 -53.603476 6.850875 -25.803333 70.993943 -22.860525 -0.528755 -5.568768 -3.192302 0.069967 -0.313423 0.034731 17.200617 -52.856684 -1.641138 28.772388 66.785393 28.559591 -15.526910 -16.202789 0.669650 0.147167 0.297426 0.034868
-249.346942 60.485639 -79.267795 155.022881 -15.714713 2.853464 4.172009 10.671899 0.506885 0.287897 0.734942 0.031481 0.493932 1.255195 0.059034 3.899626 9.753190 0.733197 3.389442 19.140023 -0.129661 3.637971 -5.464134 -0.905986 3.462265 6.264052 -1.801763 -6.276595 -12.362746 -5.900867 -82.035679 -80.271786 98.873678 0.077777 5.286141 -35.084622 -5.186021 2.281564 -5.321154 22.675595 -4.326071 1.892749 69.605987 -78.567706 -86.222902 -5.389764 5.646809 8.790312 1.344677 -53.608466 6.869269 -25.803807 70.991590 -22.864015 -0.522288 -5.563993 -3.192611 0.065621 -0.317363 0.034619 17.177666 -52.865768 -1.625797 28.764331 66.786601 28.555457 -15.516481 -16.206569 0.665410 0.154584 0.302565 0.039213
-249.344025 60.485609 -79.267152 155.006257 -15.705783 2.835040 4.192816 10.667041 0.526934 0.287982 0.737801 0.030387 0.494271 1.253164 0.059451 3.900790 9.762733 0.729373 3.383016 19.135375 -0.128686 3.627300 -5.461962 -0.906933 3.459772 6.258341 -1.801900 -6.264077 -12.362536 -5.903338 -82.054428 -80.276502 98.891377 0.085280 5.296044 -35.073120 -5.193535 2.278599 -5.325860 22.676639 -4.340942 1.898545 69.534399 -78.559515 -86.159960 -5.394927 5.654065 8.784027 1.327623 -53.614384 6.911500 -25.798680 70.989905 -22.863274 -0.500944 -5.599019 -3.185712 0.046605 -0.281329 0.026950 17.156404 -52.880397 -1.587106 28.754942 66.788306 28.550484 -15.515433 -16.175477 0.667045 0.116381 0.272206 0.029684
-249.344715 60.485269 -79.267033 155.010692 -15.691317 2.832617 4.189408 10.657218 0.525075 0.287970 0.735491 0.031362 0.494508 1.261923 0.056091 3.900827 9.766624 0.726954 3.382828 19.123272 -0.125163 3.612774 -5.452991 -0.911390 3.459997 6.245609 -1.798967 -6.259665 -12.361738 -5.904269 -82.035051 -80.283271 98.876514 0.096629 5.304094 -35.050043 -5.199956 2.273164 -5.330330 22.677847 -4.353241 1.903867 69.531276 -78.559731 -86.153894 -5.392738 5.663357 8.784420 1.320870 -53.629103 6.916819 -25.794465 70.990386 -22.861178 -0.506162 -5.593853 -3.188856 0.046468 -0.285286 0.028894 17.145360 -52.895840 -1.585765 28.738362 66.787803 28.545571 -15.571955 -16.172046 0.655324 0.106588 0.272004 0.035726
-249.343230 60.484973 -79.267241 155.012273 -15.683979 2.820333 4.190942 10.660745 0.532134 0.287890 0.735685 0.031177 0.489812 1.273873 0.047958 3.904774 9.756298 0.731876 3.375853 19.122311 -0.128019 3.614770 -5.460861 -0.911035 3.460223 6.243124 -1.799997 -6.243140 -12.365091 -5.910399 -81.964875 -80.290871 98.816462 0.087737 5.283128 -35.067387 -5.204562 2.269836 -5.334521 22.669115 -4.350563 1.902239 69.553758 -78.562387 -86.171027 -5.397056 5.661132 8.797921 1.307021 -53.635024 6.937685 -25.795673 70.988775 -22.860926 -0.509059 -5.591382 -3.191396 0.046949 -0.286791 0.029142 17.120973 -52.909772 -1.566105 28.745178 66.790198 28.554505 -15.585201 -16.168398 0.655754 0.101702 0.267959 0.031101
-249.341993 60.484616 -79.267886 155.011819 -15.678375 2.810683 4.191033 10.666460 0.533931 0.287914 0.735795 0.031225 0.489326 1.267175 0.050591 3.904032 9.763281 0.730501 3.369947 19.121796 -0.132635 3.617674 -5.467545 -0.910852 3.464431 6.243952 -1.800844 -6.221885 -12.365272 -5.924111 -82.032910 -80.282185 98.868075 0.089448 5.282895 -35.065027 -5.208046 2.269354 -5.339668 22.668665 -4.353402 1.903098 69.549479 -78.563278 -86.163113 -5.394638 5.655853 8.810220 1.297208 -53.639936 6.954353 -25.789967 70.989794 -22.855864 -0.508634 -5.588876 -3.190484 0.050686 -0.285185 0.026705 17.101701 -52.921852 -1.550777 28.755870 66.792963 28.566018 -15.588221 -16.160802 0.661724 0.124238 0.260580 0.028433
-249.341965 60.484276 -79.269250 155.009188 -15.673699 2.808866 4.184218 10.669976 0.523057 0.288081 0.736281 0.031406 0.494562 1.263269 0.056146 3.899445 9.771686 0.727744 3.369494 19.120728 -0.138267 3.608433 -5.455130 -0.925697 3.473615 6.243712 -1.801797 -6.211123 -12.373448 -5.924995 -82.045605 -80.281954 98.875876 0.101017 5.300294 -35.053307 -5.201835 2.262566 -5.338095 22.663622 -4.348172 1.900484 69.559654 -78.564423 -86.172518 -5.390520 5.656303 8.820229 1.301880 -53.645008 6.956744 -25.780355 70.992311 -22.847949 -0.511097 -5.586245 -3.186404 0.049698 -0.286260 0.025026 17.098557 -52.928511 -1.547936 28.760976 66.793946 28.572790 -15.597682 -16.152056 0.667142 0.122241 0.253134 0.025376
-249.341892 60.483714 -79.269991 155.005150 -15.665544 2.803792 4.185108 10.667443 0.518250 0.288151 0.736445 0.031098 0.494542 1.263525 0.055783 3.906748 9.781163 0.710345 3.362354 19.124598 -0.137081 3.613172 -5.467873 -0.911468 3.474867 6.240581 -1.779142 -6.208756 -12.386971 -5.921512 -82.000421 -80.290351 98.840830 0.095415 5.295151 -35.060209 -5.204520 2.255367 -5.314500 22.656809 -4.342527 1.894388 69.577933 -78.572187 -86.186848 -5.389153 5.654695 8.822619 1.311144 -53.656337 6.960067 -25.790860 70.993967 -22.853917 -0.515565 -5.580097 -3.184316 0.051131 -0.291788 0.025140 17.093481 -52.939730 -1.541397 28.775760 66.791440 28.588800 -15.598537 -16.141559 0.670746 0.080439 0.245861 0.015749
-249.341687 60.483193 -79.270582 155.000516 -15.656689 2.795596 4.194906 10.664110 0.520010 0.289278 0.742813 0.019238 0.496117 1.260816 0.060631 3.907025 9.774124 0.717673 3.354665 19.131020 -0.143915 3.616081 -5.475682 -0.901715 3.469094 6.246868 -1.780338 -6.199750 -12.394480 -5.920073 -81.901736 -80.300560 98.757927 0.085055 5.278671 -35.076798 -5.212210 2.266804 -5.322036 22.653198 -4.350719 1.895227 69.592621 -78.559071 -86.205161 -5.406906 5.655258 8.827016 1.305648 -53.665066 6.974690 -25.787377 70.994076 -22.851081 -0.509708 -5.576793 -3.185331 0.052364 -0.292211 0.026322 17.087130 -52.952198 -1.529764 28.786088 66.789987 28.598910 -15.585918 -16.129359 0.675093 0.107225 0.244840 0.022914
-249.342661 60.483055 -79.272546 155.000958 -15.652462 2.793465 4.194752 10.670475 0.501659 0.289720 0.735144 0.033318 0.497431 1.260542 0.060637 3.909095 9.774224 0.716079 3.346314 19.137287 -0.150765 3.612311 -5.473279 -0.899468 3.468366 6.252114 -1.780842 -6.193665 -12.400032 -5.919609 -81.861756 -80.298788 98.719842 0.085591 5.276625 -35.074516 -5.219699 2.276317 -5.328301 22.654992 -4.363849 1.900641 69.570334 -78.546548 -86.187993 -5.403586 5.660331 8.830715 1.313666 -53.667798 6.968207 -25.802616 70.992031 -22.863290 -0.498958 -5.578861 -3.179656 0.045179 -0.287484 0.022795 17.084826 -52.956088 -1.532039 28.799547 66.784470 28.614396 -15.570990 -16.119963 0.675295 0.108289 0.244573 0.023890
-249.346617 60.482919 -79.274824 155.028725 -15.643082 2.798527 4.165457 10.662530 0.485031 0.289189 0.736916 0.030200 0.497468 1.273165 0.047538 3.909840 9.765070 0.718074 3.347518 19.137633 -0.148284 3.596940 -5.461495 -0.914492 3.472971 6.252555 -1.770480 -6.176872 -12.404407 -5.925086 -81.846085 -80.296359 98.699505 0.085395 5.278482 -35.072746 -5.218305 2.277596 -5.324944 22.642656 -4.358449 1.904247 69.594804 -78.539606 -86.208781 -5.397622 5.670408 8.808114 1.311473 -53.676531 6.936984 -25.818158 70.992297 -22.871103 -0.507008 -5.549012 -3.185832 0.056972 -0.319627 0.027631 17.076441 -52.960300 -1.558501 28.836076 66.765770 28.647126 -15.585565 -16.140520 0.669242 0.150198 0.282689 0.040327
